<?xml version="1.0" encoding="UTF-8"?>
<!DOCTYPE svg PUBLIC "-//W3C//DTD SVG 1.1//EN" "http://www.w3.org/Graphics/SVG/1.1/DTD/svg11.dtd">
<svg xmlns="http://www.w3.org/2000/svg" version="1.1" width="1005px" height="446px" style="shape-rendering:geometricPrecision; text-rendering:geometricPrecision; image-rendering:optimizeQuality; fill-rule:evenodd; clip-rule:evenodd" xmlns:xlink="http://www.w3.org/1999/xlink">
<g><path style="opacity:1" fill="#677bb6" d="M 410.5,77.5 C 410.427,79.0269 411.094,80.0269 412.5,80.5C 414.167,81.5 415.5,82.8333 416.5,84.5C 416.427,86.0269 417.094,87.0269 418.5,87.5C 420.633,89.0905 422.299,91.0905 423.5,93.5C 423.427,95.0269 424.094,96.0269 425.5,96.5C 425.427,98.0269 426.094,99.0269 427.5,99.5C 429.326,101.147 430.66,103.147 431.5,105.5C 431.427,107.027 432.094,108.027 433.5,108.5C 433.427,110.027 434.094,111.027 435.5,111.5C 444.643,125.791 451.643,141.124 456.5,157.5C 456.41,160.152 457.076,162.485 458.5,164.5C 459.434,165.568 459.768,166.901 459.5,168.5C 459.41,171.152 460.076,173.485 461.5,175.5C 477.873,277.567 442.54,356.067 355.5,411C 300.018,441.854 241.351,450.354 179.5,436.5C 177.485,435.076 175.152,434.41 172.5,434.5C 170.901,434.768 169.568,434.434 168.5,433.5C 166.485,432.076 164.152,431.41 161.5,431.5C 142.181,425.838 124.181,417.505 107.5,406.5C 107.027,405.094 106.027,404.427 104.5,404.5C 104.027,403.094 103.027,402.427 101.5,402.5C 101.027,401.094 100.027,400.427 98.5,400.5C 93.9289,398.262 89.9289,395.262 86.5,391.5C 86.0269,390.094 85.0269,389.427 83.5,389.5C 82.1667,388.833 81.1667,387.833 80.5,386.5C 79.7377,384.738 78.4044,383.738 76.5,383.5C 73.5,381.167 70.8333,378.5 68.5,375.5C 67.7377,373.738 66.4044,372.738 64.5,372.5C 53.6269,361.074 43.9602,348.74 35.5,335.5C 35.7148,333.821 35.0481,332.821 33.5,332.5C 3.01117,281.077 -4.98883,226.411 9.5,168.5C 10.9238,166.485 11.5905,164.152 11.5,161.5C 11.5,160.833 11.5,160.167 11.5,159.5C 13.2132,158.365 13.8799,156.698 13.5,154.5C 18.7203,138.063 26.0536,122.729 35.5,108.5C 36.9063,108.027 37.573,107.027 37.5,105.5C 38.9063,105.027 39.573,104.027 39.5,102.5C 40.9063,102.027 41.573,101.027 41.5,99.5C 43.016,96.4669 45.016,93.8003 47.5,91.5C 48.9063,91.0269 49.573,90.0269 49.5,88.5C 51.117,85.2157 53.4503,82.5491 56.5,80.5C 58.2624,79.7377 59.2624,78.4044 59.5,76.5C 63.1667,72.1667 67.1667,68.1667 71.5,64.5C 74.0892,63.5806 76.0892,61.914 77.5,59.5C 80.4274,58.2427 82.7607,56.2427 84.5,53.5C 86.7488,52.9202 88.4154,51.5869 89.5,49.5C 91.2964,47.1 93.6298,45.4333 96.5,44.5C 98.4044,44.2624 99.7377,43.2624 100.5,41.5C 102.027,41.573 103.027,40.9063 103.5,39.5C 106.494,37.0002 109.827,35.0002 113.5,33.5C 115.027,33.573 116.027,32.9063 116.5,31.5C 183.171,-4.3686 252.171,-9.20193 323.5,17C 357.329,30.3456 386.329,50.5122 410.5,77.5 Z M 292.5,18.5 C 294.515,19.9238 296.848,20.5905 299.5,20.5C 312.991,25.2387 326.325,30.572 339.5,36.5C 339.973,37.9063 340.973,38.573 342.5,38.5C 345.999,40.7505 349.665,42.7505 353.5,44.5C 353.973,45.9063 354.973,46.573 356.5,46.5C 360.223,49.5515 364.223,52.2181 368.5,54.5C 369.262,56.2624 370.596,57.2624 372.5,57.5C 374.091,59.6326 376.091,61.2993 378.5,62.5C 379.262,64.2624 380.596,65.2624 382.5,65.5C 383.5,67.1667 384.833,68.5 386.5,69.5C 388.239,72.2427 390.573,74.2427 393.5,75.5C 394.167,76.5 394.833,77.5 395.5,78.5C 396.5,80.1667 397.833,81.5 399.5,82.5C 404.079,87.3536 408.413,92.3536 412.5,97.5C 413.026,99.2303 414.026,100.564 415.5,101.5C 417.5,104.5 419.5,107.5 421.5,110.5C 422.026,112.23 423.026,113.564 424.5,114.5C 439.296,139.216 448.963,165.882 453.5,194.5C 453.167,195.167 452.833,195.833 452.5,196.5C 447.158,195.816 441.824,194.983 436.5,194C 431.631,188.963 426.631,184.13 421.5,179.5C 420.167,177.5 418.5,175.833 416.5,174.5C 405.035,163.535 393.702,152.369 382.5,141C 369.652,135.995 356.652,131.495 343.5,127.5C 343.5,126.833 343.5,126.167 343.5,125.5C 349.357,123.07 355.023,120.403 360.5,117.5C 362.424,117.289 362.757,116.623 361.5,115.5C 360.612,112.124 358.779,109.457 356,107.5C 347.068,111.888 337.901,115.554 328.5,118.5C 328.262,116.596 327.262,115.262 325.5,114.5C 325.573,112.973 324.906,111.973 323.5,111.5C 323.167,110.5 322.5,109.833 321.5,109.5C 321.262,107.596 320.262,106.262 318.5,105.5C 311.279,97.1109 303.279,89.6109 294.5,83C 299.167,75.6667 303.833,68.3333 308.5,61C 306.037,58.93 303.371,57.0967 300.5,55.5C 294.127,62.3768 288.293,69.7101 283,77.5C 267.12,69.4883 250.287,65.1549 232.5,64.5C 232.994,55.7984 232.994,47.1317 232.5,38.5C 229.242,37.5827 225.909,37.2493 222.5,37.5C 221.393,46.121 220.726,54.7877 220.5,63.5C 216.063,64.1132 211.73,64.7798 207.5,65.5C 194.132,67.2329 181.299,70.8996 169,76.5C 165.233,70.6296 161.733,64.6296 158.5,58.5C 158.573,56.9731 157.906,55.9731 156.5,55.5C 153.658,55.2323 150.992,56.2323 148.5,58.5C 147.624,58.3691 146.957,58.7025 146.5,59.5C 146.942,60.7387 147.609,61.7387 148.5,62.5C 151.263,69.0236 154.263,75.357 157.5,81.5C 157.443,82.609 157.11,83.609 156.5,84.5C 154.973,84.427 153.973,85.0937 153.5,86.5C 148.262,89.0696 143.928,92.7363 140.5,97.5C 137.833,98.1667 136.167,99.8333 135.5,102.5C 133.5,103.833 131.833,105.5 130.5,107.5C 129.094,107.973 128.427,108.973 128.5,110.5C 126.188,113.479 123.521,116.146 120.5,118.5C 118.506,117.511 116.506,116.511 114.5,115.5C 113.71,114.599 112.71,113.932 111.5,113.5C 107.43,110.713 103.263,108.046 99,105.5C 95.6633,107.151 93.4966,109.818 92.5,113.5C 93.6046,115.611 95.2712,116.945 97.5,117.5C 97.9731,118.906 98.9731,119.573 100.5,119.5C 100.973,120.906 101.973,121.573 103.5,121.5C 103.973,122.906 104.973,123.573 106.5,123.5C 106.973,124.906 107.973,125.573 109.5,125.5C 111.316,127.137 113.316,128.637 115.5,130C 113.872,133.052 112.539,136.218 111.5,139.5C 110.463,140.93 109.796,142.597 109.5,144.5C 105.994,155.533 103.994,166.867 103.5,178.5C 95.1775,177.945 86.8442,177.612 78.5,177.5C 77.0813,176.549 75.4147,176.216 73.5,176.5C 73.185,180.371 73.5184,184.038 74.5,187.5C 84.4027,188.826 94.4027,189.493 104.5,189.5C 105.779,206.505 110.779,222.338 119.5,237C 112.019,240.241 104.686,243.741 97.5,247.5C 95.9731,247.427 94.9731,248.094 94.5,249.5C 93.0047,249.415 92.0047,250.081 91.5,251.5C 92.6248,254.781 94.4582,257.448 97,259.5C 106.449,255.775 115.783,251.775 125,247.5C 127.316,248.65 129.15,250.317 130.5,252.5C 130.267,254.062 129.6,255.395 128.5,256.5C 126.251,257.08 124.585,258.413 123.5,260.5C 102.212,275.789 81.2123,291.455 60.5,307.5C 58.5956,307.738 57.2623,308.738 56.5,310.5C 51.2307,313.922 46.064,317.589 41,321.5C 10.8977,266.657 6.231,209.657 27,150.5C 60.4993,73.6878 118.666,28.1878 201.5,14C 232.093,10.28 262.427,11.78 292.5,18.5 Z M 387.5,162.5 C 389.569,165.573 392.236,167.906 395.5,169.5C 406.167,180.833 417.167,191.833 428.5,202.5C 430.391,205.172 433.058,206.172 436.5,205.5C 442.411,206.558 448.411,207.225 454.5,207.5C 456.26,233.422 453.26,258.755 445.5,283.5C 444.463,284.93 443.796,286.597 443.5,288.5C 438.29,301.916 432.29,314.916 425.5,327.5C 424.094,327.973 423.427,328.973 423.5,330.5C 421.255,333.32 419.255,336.32 417.5,339.5C 416.094,339.973 415.427,340.973 415.5,342.5C 413.367,344.091 411.701,346.091 410.5,348.5C 409.094,348.973 408.427,349.973 408.5,351.5C 406.833,352.5 405.5,353.833 404.5,355.5C 403.094,355.973 402.427,356.973 402.5,358.5C 396.5,363.833 390.833,369.5 385.5,375.5C 382.911,376.419 380.911,378.086 379.5,380.5C 377.251,381.08 375.585,382.413 374.5,384.5C 372.596,384.738 371.262,385.738 370.5,387.5C 368.596,387.738 367.262,388.738 366.5,390.5C 364.147,391.34 362.147,392.674 360.5,394.5C 358.973,394.427 357.973,395.094 357.5,396.5C 352.571,398.775 347.904,401.441 343.5,404.5C 341.973,404.427 340.973,405.094 340.5,406.5C 333.588,409.13 326.922,412.13 320.5,415.5C 317.603,416.129 314.936,417.129 312.5,418.5C 309.603,419.129 306.936,420.129 304.5,421.5C 301.848,421.41 299.515,422.076 297.5,423.5C 294.848,423.41 292.515,424.076 290.5,425.5C 285.74,426.191 281.074,427.191 276.5,428.5C 274.503,363.509 273.837,298.175 274.5,232.5C 270.702,231.517 266.702,231.183 262.5,231.5C 262.5,297.833 262.5,364.167 262.5,430.5C 255.085,430.813 247.752,431.48 240.5,432.5C 240.5,416.167 240.5,399.833 240.5,383.5C 236.629,383.185 232.962,383.518 229.5,384.5C 228.504,399.991 228.17,415.658 228.5,431.5C 221.146,431.521 213.813,431.187 206.5,430.5C 206.5,386.167 206.5,341.833 206.5,297.5C 202.5,297.5 198.5,297.5 194.5,297.5C 194.667,340.835 194.5,384.168 194,427.5C 169.969,423.989 147.135,416.322 125.5,404.5C 124.71,403.599 123.71,402.932 122.5,402.5C 108.384,394.717 95.3845,385.384 83.5,374.5C 82.8333,373.167 81.8333,372.167 80.5,371.5C 76.8333,368.167 73.1667,364.833 69.5,361.5C 68.5806,358.911 66.914,356.911 64.5,355.5C 63.5,353.833 62.1667,352.5 60.5,351.5C 60.573,349.973 59.9063,348.973 58.5,348.5C 56.5179,345.19 54.1846,342.19 51.5,339.5C 51.573,337.973 50.9063,336.973 49.5,336.5C 49.573,334.973 48.9063,333.973 47.5,333.5C 49.2391,330.59 51.5724,328.09 54.5,326C 91.2687,298.865 127.769,271.365 164,243.5C 164.167,227.823 164.667,212.156 165.5,196.5C 174.718,192.059 183.718,187.392 192.5,182.5C 194.492,209.813 195.158,237.48 194.5,265.5C 198.5,265.5 202.5,265.5 206.5,265.5C 206.5,235.167 206.5,204.833 206.5,174.5C 213.718,169.398 220.718,164.064 227.5,158.5C 228.167,223.167 228.833,287.833 229.5,352.5C 232.833,352.5 236.167,352.5 239.5,352.5C 240.17,285.264 240.837,217.931 241.5,150.5C 248.55,149.825 255.55,148.825 262.5,147.5C 262.5,165.167 262.5,182.833 262.5,200.5C 266.702,200.817 270.702,200.483 274.5,199.5C 274.18,180.424 274.513,161.424 275.5,142.5C 283.516,135.985 291.683,129.652 300,123.5C 324.5,132.333 349,141.167 373.5,150C 378.335,154.003 383.002,158.17 387.5,162.5 Z"/></g>
<g><path style="opacity:0.937" fill="#a4afd3" d="M 292.5,18.5 C 295.152,18.4095 297.485,19.0762 299.5,20.5C 296.848,20.5905 294.515,19.9238 292.5,18.5 Z"/></g>
<g><path style="opacity:0.788" fill="#b2bbda" d="M 116.5,31.5 C 116.027,32.9063 115.027,33.573 113.5,33.5C 113.973,32.0937 114.973,31.427 116.5,31.5 Z"/></g>
<g><path style="opacity:0.314" fill="#c9d0e5" d="M 339.5,36.5 C 341.027,36.427 342.027,37.0937 342.5,38.5C 340.973,38.573 339.973,37.9063 339.5,36.5 Z"/></g>
<g><path style="opacity:0.78" fill="#b2bbda" d="M 103.5,39.5 C 103.027,40.9063 102.027,41.573 100.5,41.5C 100.973,40.0937 101.973,39.427 103.5,39.5 Z"/></g>
<g><path style="opacity:0.725" fill="#aeb9d8" d="M 100.5,41.5 C 99.7377,43.2624 98.4044,44.2624 96.5,44.5C 97.2623,42.7376 98.5956,41.7376 100.5,41.5 Z"/></g>
<g><path style="opacity:0.392" fill="#c4cbe2" d="M 353.5,44.5 C 355.027,44.427 356.027,45.0937 356.5,46.5C 354.973,46.573 353.973,45.9063 353.5,44.5 Z"/></g>
<g><path style="opacity:0.957" fill="#9ca8cf" d="M 89.5,49.5 C 88.4154,51.5869 86.7488,52.9202 84.5,53.5C 85.5846,51.4131 87.2512,50.0798 89.5,49.5 Z"/></g>
<g><path style="opacity:0.882" fill="#b1bad9" d="M 368.5,54.5 C 370.404,54.7376 371.738,55.7376 372.5,57.5C 370.596,57.2624 369.262,56.2624 368.5,54.5 Z"/></g>
<g><path style="opacity:0.89" fill="#9da9cf" d="M 84.5,53.5 C 82.7607,56.2427 80.4274,58.2427 77.5,59.5C 79.2393,56.7573 81.5726,54.7573 84.5,53.5 Z"/></g>
<g><path style="opacity:0.424" fill="#bfc6e0" d="M 156.5,55.5 C 157.906,55.9731 158.573,56.9731 158.5,58.5C 157.094,58.0269 156.427,57.0269 156.5,55.5 Z"/></g>
<g><path style="opacity:0.961" fill="#b1b9d9" d="M 148.5,58.5 C 148.5,59.8333 148.5,61.1667 148.5,62.5C 147.609,61.7387 146.942,60.7387 146.5,59.5C 146.957,58.7025 147.624,58.3691 148.5,58.5 Z"/></g>
<g><path style="opacity:0.827" fill="#acb6d6" d="M 77.5,59.5 C 76.0892,61.914 74.0892,63.5806 71.5,64.5C 72.9108,62.086 74.9108,60.4194 77.5,59.5 Z"/></g>
<g><path style="opacity:0.773" fill="#bec6e0" d="M 378.5,62.5 C 380.404,62.7376 381.738,63.7376 382.5,65.5C 380.596,65.2624 379.262,64.2624 378.5,62.5 Z"/></g>
<g><path style="opacity:0.749" fill="#9ca9cf" d="M 220.5,63.5 C 216.627,65.4302 212.294,66.0969 207.5,65.5C 211.73,64.7798 216.063,64.1132 220.5,63.5 Z"/></g>
<g><path style="opacity:0.769" fill="#c4cbe3" d="M 386.5,69.5 C 389.427,70.7573 391.761,72.7573 393.5,75.5C 390.573,74.2427 388.239,72.2427 386.5,69.5 Z"/></g>
<g><path style="opacity:1" fill="#6277b4" d="M 594.5,82.5 C 594.427,84.0269 595.094,85.0269 596.5,85.5C 598.874,88.6859 599.874,92.3526 599.5,96.5C 599.5,133.167 599.5,169.833 599.5,206.5C 591.5,206.5 583.5,206.5 575.5,206.5C 575.5,197.5 575.5,188.5 575.5,179.5C 569.833,179.5 564.167,179.5 558.5,179.5C 557.507,188.318 557.173,197.318 557.5,206.5C 549.5,206.5 541.5,206.5 533.5,206.5C 533.5,202.5 533.5,198.5 533.5,194.5C 533.333,159.832 533.5,125.165 534,90.5C 540.244,75.7882 551.41,68.7882 567.5,69.5C 575.995,69.4983 583.661,71.9983 590.5,77C 592.464,78.451 593.797,80.2843 594.5,82.5 Z M 574.5,96.5 C 574.5,116.833 574.5,137.167 574.5,157.5C 569.167,157.5 563.833,157.5 558.5,157.5C 558.084,136.464 558.584,115.464 560,94.5C 565.857,87.6175 570.69,88.2841 574.5,96.5 Z"/></g>
<g><path style="opacity:1" fill="#667ab5" d="M 854.5,77.5 C 854.427,79.0269 855.094,80.0269 856.5,80.5C 859.164,82.4844 860.831,85.1511 861.5,88.5C 861.41,91.1522 862.076,93.4855 863.5,95.5C 864.148,126.491 863.982,157.491 863,188.5C 858.905,198.928 851.405,205.428 840.5,208C 825.333,211.505 812.5,207.672 802,196.5C 800.139,194.112 798.806,191.446 798,188.5C 796.425,158.188 796.092,127.855 797,97.5C 797.286,91.279 799.453,85.9457 803.5,81.5C 804.906,81.0269 805.573,80.0269 805.5,78.5C 807.027,78.573 808.027,77.9063 808.5,76.5C 814.526,71.6022 821.526,69.2689 829.5,69.5C 838.938,68.9802 847.271,71.6468 854.5,77.5 Z M 826.5,187.5 C 825.833,186.167 824.833,185.167 823.5,184.5C 822.365,155.19 822.199,125.857 823,96.5C 825.214,90.9738 829.048,89.1405 834.5,91C 835.701,91.9025 836.535,93.0692 837,94.5C 838.979,124.498 838.979,154.498 837,184.5C 834.399,188.411 830.899,189.411 826.5,187.5 Z"/></g>
<g><path style="opacity:1" fill="#667bb5" d="M 988.5,78.5 C 988.427,80.0269 989.094,81.0269 990.5,81.5C 994.085,85.3838 996.252,90.0505 997,95.5C 997.667,124.833 997.667,154.167 997,183.5C 992.85,201.142 981.683,209.475 963.5,208.5C 957.52,208.925 951.853,207.925 946.5,205.5C 946.027,204.094 945.027,203.427 943.5,203.5C 934.039,197.583 929.539,188.916 930,177.5C 929.078,148.808 929.412,120.141 931,91.5C 931.24,89.1484 932.073,87.1484 933.5,85.5C 934.906,85.0269 935.573,84.0269 935.5,82.5C 937.262,81.7377 938.262,80.4044 938.5,78.5C 940.027,78.573 941.027,77.9063 941.5,76.5C 943.336,74.412 945.669,73.0787 948.5,72.5C 951.152,72.5905 953.485,71.9238 955.5,70.5C 967.882,67.8398 978.882,70.5065 988.5,78.5 Z M 968.5,187.5 C 965.904,188.265 963.237,188.599 960.5,188.5C 958.836,187.257 957.669,185.59 957,183.5C 956.821,154.637 956.321,125.804 955.5,97C 958.999,89.3017 963.832,88.135 970,93.5C 970.333,95.1667 970.667,96.8333 971,98.5C 971.667,125.167 971.667,151.833 971,178.5C 970.801,181.722 969.968,184.722 968.5,187.5 Z"/></g>
<g><path style="opacity:0.882" fill="#8694c4" d="M 647.5,71.5 C 640.167,71.5 632.833,71.5 625.5,71.5C 625.5,116.5 625.5,161.5 625.5,206.5C 632.833,206.5 640.167,206.5 647.5,206.5C 647.5,206.833 647.5,207.167 647.5,207.5C 639.833,207.5 632.167,207.5 624.5,207.5C 624.5,161.833 624.5,116.167 624.5,70.5C 632.352,70.1746 640.018,70.508 647.5,71.5 Z"/></g>
<g><path style="opacity:1" fill="#6177b3" d="M 647.5,71.5 C 649.029,75.4214 650.363,79.4214 651.5,83.5C 651.12,85.698 651.787,87.3646 653.5,88.5C 656.363,96.4214 659.029,104.421 661.5,112.5C 661.12,114.698 661.787,116.365 663.5,117.5C 665.696,123.421 667.696,129.421 669.5,135.5C 669.12,137.698 669.787,139.365 671.5,140.5C 672.234,141.708 672.567,143.041 672.5,144.5C 672.461,145.756 672.961,146.756 674,147.5C 674.499,143.848 674.665,140.182 674.5,136.5C 674.5,114.833 674.5,93.1667 674.5,71.5C 682.167,71.5 689.833,71.5 697.5,71.5C 697.5,116.5 697.5,161.5 697.5,206.5C 689.559,207.081 681.892,206.414 674.5,204.5C 665.792,180.713 657.459,156.713 649.5,132.5C 649.631,131.624 649.298,130.957 648.5,130.5C 647.5,155.825 647.167,181.158 647.5,206.5C 640.167,206.5 632.833,206.5 625.5,206.5C 625.5,161.5 625.5,116.5 625.5,71.5C 632.833,71.5 640.167,71.5 647.5,71.5 Z"/></g>
<g><path style="opacity:0.322" fill="#d0d6e8" d="M 674.5,71.5 C 682.316,70.5076 690.316,70.1743 698.5,70.5C 698.832,116.336 698.499,162.003 697.5,207.5C 697.5,207.167 697.5,206.833 697.5,206.5C 697.5,161.5 697.5,116.5 697.5,71.5C 689.833,71.5 682.167,71.5 674.5,71.5 Z"/></g>
<g><path style="opacity:0.8" fill="#7e8fc0" d="M 783.5,71.5 C 783.5,71.8333 783.5,72.1667 783.5,72.5C 759.833,72.5 736.167,72.5 712.5,72.5C 712.5,78.8333 712.5,85.1667 712.5,91.5C 712.167,91.5 711.833,91.5 711.5,91.5C 711.5,84.8333 711.5,78.1667 711.5,71.5C 735.5,71.5 759.5,71.5 783.5,71.5 Z"/></g>
<g><path style="opacity:1" fill="#6277b3" d="M 914.5,184.5 C 913.222,198.281 905.555,206.115 891.5,208C 886.511,208.499 881.511,208.666 876.5,208.5C 875.946,201.883 875.946,195.216 876.5,188.5C 886.404,188.931 890.737,184.265 889.5,174.5C 890.498,140.337 890.832,106.004 890.5,71.5C 898.5,71.5 906.5,71.5 914.5,71.5C 914.5,109.167 914.5,146.833 914.5,184.5 Z"/></g>
<g><path style="opacity:0.925" fill="#a5afd4" d="M 955.5,70.5 C 953.485,71.9238 951.152,72.5905 948.5,72.5C 950.515,71.0762 952.848,70.4095 955.5,70.5 Z"/></g>
<g><path style="opacity:1" fill="#6076b3" d="M 783.5,72.5 C 783.5,78.8333 783.5,85.1667 783.5,91.5C 775.833,91.5 768.167,91.5 760.5,91.5C 760.5,129.833 760.5,168.167 760.5,206.5C 752.167,206.5 743.833,206.5 735.5,206.5C 735.5,168.167 735.5,129.833 735.5,91.5C 727.833,91.5 720.167,91.5 712.5,91.5C 712.5,85.1667 712.5,78.8333 712.5,72.5C 736.167,72.5 759.833,72.5 783.5,72.5 Z"/></g>
<g><path style="opacity:0.702" fill="#bec6df" d="M 59.5,76.5 C 59.2624,78.4044 58.2624,79.7377 56.5,80.5C 56.7376,78.5956 57.7376,77.2623 59.5,76.5 Z"/></g>
<g><path style="opacity:0.675" fill="#bbc4de" d="M 808.5,76.5 C 808.027,77.9063 807.027,78.573 805.5,78.5C 805.973,77.0937 806.973,76.427 808.5,76.5 Z"/></g>
<g><path style="opacity:0.733" fill="#b5bedb" d="M 941.5,76.5 C 941.027,77.9063 940.027,78.573 938.5,78.5C 938.973,77.0937 939.973,76.427 941.5,76.5 Z"/></g>
<g><path style="opacity:0.58" fill="#ced4e7" d="M 395.5,78.5 C 397.833,78.8333 399.167,80.1667 399.5,82.5C 397.833,81.5 396.5,80.1667 395.5,78.5 Z"/></g>
<g><path style="opacity:0.667" fill="#c2c9e1" d="M 410.5,77.5 C 411.906,77.9731 412.573,78.9731 412.5,80.5C 411.094,80.0269 410.427,79.0269 410.5,77.5 Z"/></g>
<g><path style="opacity:0.616" fill="#c5cde3" d="M 854.5,77.5 C 855.906,77.9731 856.573,78.9731 856.5,80.5C 855.094,80.0269 854.427,79.0269 854.5,77.5 Z"/></g>
<g><path style="opacity:0.682" fill="#c0c8e0" d="M 805.5,78.5 C 805.573,80.0269 804.906,81.0269 803.5,81.5C 803.427,79.9731 804.094,78.9731 805.5,78.5 Z"/></g>
<g><path style="opacity:0.8" fill="#b8c0dc" d="M 938.5,78.5 C 938.262,80.4044 937.262,81.7377 935.5,82.5C 935.738,80.5956 936.738,79.2623 938.5,78.5 Z"/></g>
<g><path style="opacity:0.69" fill="#bfc7e0" d="M 988.5,78.5 C 989.906,78.9731 990.573,79.9731 990.5,81.5C 989.094,81.0269 988.427,80.0269 988.5,78.5 Z"/></g>
<g><path style="opacity:0.831" fill="#b2bbda" d="M 157.5,81.5 C 158.885,82.9473 158.552,83.9473 156.5,84.5C 157.11,83.609 157.443,82.609 157.5,81.5 Z"/></g>
<g><path style="opacity:0.537" fill="#b3bcda" d="M 594.5,82.5 C 595.906,82.9731 596.573,83.9731 596.5,85.5C 595.094,85.0269 594.427,84.0269 594.5,82.5 Z"/></g>
<g><path style="opacity:0.392" fill="#c2c9e1" d="M 935.5,82.5 C 935.573,84.0269 934.906,85.0269 933.5,85.5C 933.427,83.9731 934.094,82.9731 935.5,82.5 Z"/></g>
<g><path style="opacity:0.714" fill="#bac3de" d="M 156.5,84.5 C 156.027,85.9063 155.027,86.573 153.5,86.5C 153.973,85.0937 154.973,84.427 156.5,84.5 Z"/></g>
<g><path style="opacity:0.71" fill="#bfc7e0" d="M 416.5,84.5 C 417.906,84.9731 418.573,85.9731 418.5,87.5C 417.094,87.0269 416.427,86.0269 416.5,84.5 Z"/></g>
<g><path style="opacity:0.902" fill="#b4bcda" d="M 651.5,83.5 C 652.537,84.9303 653.204,86.597 653.5,88.5C 651.787,87.3646 651.12,85.698 651.5,83.5 Z"/></g>
<g><path style="opacity:0.652" fill="#a9b5d6" d="M 914.5,184.5 C 914.5,146.833 914.5,109.167 914.5,71.5C 906.5,71.5 898.5,71.5 890.5,71.5C 890.832,106.004 890.498,140.337 889.5,174.5C 889.5,139.833 889.5,105.167 889.5,70.5C 898.167,70.5 906.833,70.5 915.5,70.5C 915.832,108.67 915.499,146.67 914.5,184.5 Z"/></g>
<g><path style="opacity:0.792" fill="#b4bddb" d="M 49.5,88.5 C 49.573,90.0269 48.9063,91.0269 47.5,91.5C 47.427,89.9731 48.0937,88.9731 49.5,88.5 Z"/></g>
<g><path style="opacity:0.397" fill="#ced4e7" d="M 783.5,71.5 C 784.491,78.3134 784.825,85.3134 784.5,92.5C 776.833,92.5 769.167,92.5 761.5,92.5C 761.832,131.004 761.499,169.337 760.5,207.5C 760.5,207.167 760.5,206.833 760.5,206.5C 760.5,168.167 760.5,129.833 760.5,91.5C 768.167,91.5 775.833,91.5 783.5,91.5C 783.5,85.1667 783.5,78.8333 783.5,72.5C 783.5,72.1667 783.5,71.8333 783.5,71.5 Z"/></g>
<g><path style="opacity:0.333" fill="#c2cae2" d="M 711.5,91.5 C 711.833,91.5 712.167,91.5 712.5,91.5C 720.167,91.5 727.833,91.5 735.5,91.5C 735.5,129.833 735.5,168.167 735.5,206.5C 743.833,206.5 752.167,206.5 760.5,206.5C 760.5,206.833 760.5,207.167 760.5,207.5C 751.833,207.5 743.167,207.5 734.5,207.5C 734.5,169.167 734.5,130.833 734.5,92.5C 726.648,92.8254 718.982,92.492 711.5,91.5 Z"/></g>
<g><path style="opacity:0.608" fill="#a9b4d6" d="M 861.5,88.5 C 862.924,90.5145 863.59,92.8478 863.5,95.5C 862.076,93.4855 861.41,91.1522 861.5,88.5 Z"/></g>
<g><path style="opacity:0.424" fill="#c6cde3" d="M 423.5,93.5 C 424.906,93.9731 425.573,94.9731 425.5,96.5C 424.094,96.0269 423.427,95.0269 423.5,93.5 Z"/></g>
<g><path style="opacity:0.984" fill="#b1b9d9" d="M 412.5,97.5 C 414.446,98.0347 415.446,99.368 415.5,101.5C 414.026,100.564 413.026,99.2303 412.5,97.5 Z"/></g>
<g><path style="opacity:0.569" fill="#c0c8e1" d="M 140.5,97.5 C 139.167,99.5 137.5,101.167 135.5,102.5C 136.167,99.8333 137.833,98.1667 140.5,97.5 Z"/></g>
<g><path style="opacity:0.557" fill="#b6bfdc" d="M 425.5,96.5 C 426.906,96.9731 427.573,97.9731 427.5,99.5C 426.094,99.0269 425.427,98.0269 425.5,96.5 Z"/></g>
<g><path style="opacity:0.569" fill="#b4bddb" d="M 41.5,99.5 C 41.573,101.027 40.9063,102.027 39.5,102.5C 39.427,100.973 40.0937,99.9731 41.5,99.5 Z"/></g>
<g><path style="opacity:0.545" fill="#b4bedb" d="M 39.5,102.5 C 39.573,104.027 38.9063,105.027 37.5,105.5C 37.427,103.973 38.0937,102.973 39.5,102.5 Z"/></g>
<g><path style="opacity:0.835" fill="#b6bfdc" d="M 318.5,105.5 C 320.262,106.262 321.262,107.596 321.5,109.5C 319.738,108.738 318.738,107.404 318.5,105.5 Z"/></g>
<g><path style="opacity:0.475" fill="#bbc4de" d="M 37.5,105.5 C 37.573,107.027 36.9063,108.027 35.5,108.5C 35.427,106.973 36.0937,105.973 37.5,105.5 Z"/></g>
<g><path style="opacity:0.525" fill="#b6bfdb" d="M 431.5,105.5 C 432.906,105.973 433.573,106.973 433.5,108.5C 432.094,108.027 431.427,107.027 431.5,105.5 Z"/></g>
<g><path style="opacity:0.788" fill="#b5bedb" d="M 130.5,107.5 C 130.573,109.027 129.906,110.027 128.5,110.5C 128.427,108.973 129.094,107.973 130.5,107.5 Z"/></g>
<g><path style="opacity:0.933" fill="#b5bddb" d="M 421.5,110.5 C 423.446,111.035 424.446,112.368 424.5,114.5C 423.026,113.564 422.026,112.23 421.5,110.5 Z"/></g>
<g><path style="opacity:0.4" fill="#c2cae2" d="M 433.5,108.5 C 434.906,108.973 435.573,109.973 435.5,111.5C 434.094,111.027 433.427,110.027 433.5,108.5 Z"/></g>
<g><path style="opacity:0.518" fill="#bcc4df" d="M 323.5,111.5 C 324.906,111.973 325.573,112.973 325.5,114.5C 324.094,114.027 323.427,113.027 323.5,111.5 Z"/></g>
<g><path style="opacity:0.957" fill="#b0b9d8" d="M 111.5,113.5 C 112.71,113.932 113.71,114.599 114.5,115.5C 112.821,115.715 111.821,115.048 111.5,113.5 Z"/></g>
<g><path style="opacity:0.894" fill="#b1bbd9" d="M 325.5,114.5 C 327.262,115.262 328.262,116.596 328.5,118.5C 326.738,117.738 325.738,116.404 325.5,114.5 Z"/></g>
<g><path style="opacity:0.016" fill="#eff1f7" d="M 361.5,115.5 C 362.757,116.623 362.424,117.289 360.5,117.5C 360.833,116.833 361.167,116.167 361.5,115.5 Z"/></g>
<g><path style="opacity:0.91" fill="#b1bada" d="M 661.5,112.5 C 662.537,113.93 663.204,115.597 663.5,117.5C 661.787,116.365 661.12,114.698 661.5,112.5 Z"/></g>
<g><path style="opacity:0.459" fill="#bfc7e0" d="M 97.5,117.5 C 99.0269,117.427 100.027,118.094 100.5,119.5C 98.9731,119.573 97.9731,118.906 97.5,117.5 Z"/></g>
<g><path style="opacity:0.4" fill="#c3cbe2" d="M 100.5,119.5 C 102.027,119.427 103.027,120.094 103.5,121.5C 101.973,121.573 100.973,120.906 100.5,119.5 Z"/></g>
<g><path style="opacity:0.199" fill="#d7ddec" d="M 574.5,96.5 C 575.497,116.993 575.831,137.66 575.5,158.5C 569.642,158.822 563.975,158.489 558.5,157.5C 563.833,157.5 569.167,157.5 574.5,157.5C 574.5,137.167 574.5,116.833 574.5,96.5 Z"/></g>
<g><path style="opacity:0.447" fill="#c0c8e1" d="M 103.5,121.5 C 105.027,121.427 106.027,122.094 106.5,123.5C 104.973,123.573 103.973,122.906 103.5,121.5 Z"/></g>
<g><path style="opacity:0.4" fill="#c6cde4" d="M 106.5,123.5 C 108.027,123.427 109.027,124.094 109.5,125.5C 107.973,125.573 106.973,124.906 106.5,123.5 Z"/></g>
<g><path style="opacity:0.075" fill="#e0e4ef" d="M 343.5,125.5 C 343.5,126.167 343.5,126.833 343.5,127.5C 340.833,126.833 340.833,126.167 343.5,125.5 Z"/></g>
<g><path style="opacity:0.937" fill="#adb7d7" d="M 669.5,135.5 C 670.537,136.93 671.204,138.597 671.5,140.5C 669.787,139.365 669.12,137.698 669.5,135.5 Z"/></g>
<g><path style="opacity:0.918" fill="#b1b9d9" d="M 111.5,139.5 C 111.88,141.698 111.213,143.365 109.5,144.5C 109.796,142.597 110.463,140.93 111.5,139.5 Z"/></g>
<g><path style="opacity:0.788" fill="#8393c2" d="M 275.5,142.5 C 274.513,161.424 274.18,180.424 274.5,199.5C 274.167,199.5 273.833,199.5 273.5,199.5C 272.846,180.137 273.513,161.137 275.5,142.5 Z"/></g>
<g><path style="opacity:0.153" fill="#e6e9f3" d="M 674.5,136.5 C 674.665,140.182 674.499,143.848 674,147.5C 672.961,146.756 672.461,145.756 672.5,144.5C 673.167,141.833 673.833,139.167 674.5,136.5 Z"/></g>
<g><path style="opacity:0.466" fill="#b4bedb" d="M 599.5,96.5 C 600.498,133.33 600.832,170.33 600.5,207.5C 592.167,207.5 583.833,207.5 575.5,207.5C 575.5,207.167 575.5,206.833 575.5,206.5C 583.5,206.5 591.5,206.5 599.5,206.5C 599.5,169.833 599.5,133.167 599.5,96.5 Z"/></g>
<g><path style="opacity:0.89" fill="#b4bcda" d="M 13.5,154.5 C 13.8799,156.698 13.2132,158.365 11.5,159.5C 11.7959,157.597 12.4625,155.93 13.5,154.5 Z"/></g>
<g><path style="opacity:0.894" fill="#acb6d7" d="M 456.5,157.5 C 457.924,159.515 458.59,161.848 458.5,164.5C 457.076,162.485 456.41,160.152 456.5,157.5 Z"/></g>
<g><path style="opacity:0.702" fill="#c7cee4" d="M 387.5,162.5 C 390.764,164.094 393.431,166.427 395.5,169.5C 392.236,167.906 389.569,165.573 387.5,162.5 Z"/></g>
<g><path style="opacity:0.276" fill="#ccd3e6" d="M 649.5,132.5 C 648.833,157.5 648.167,182.5 647.5,207.5C 647.5,207.167 647.5,206.833 647.5,206.5C 647.167,181.158 647.5,155.825 648.5,130.5C 649.298,130.957 649.631,131.624 649.5,132.5 Z"/></g>
<g><path style="opacity:0.973" fill="#9ba8cf" d="M 11.5,161.5 C 11.5905,164.152 10.9238,166.485 9.5,168.5C 9.40953,165.848 10.0762,163.515 11.5,161.5 Z"/></g>
<g><path style="opacity:0.416" fill="#bdc6df" d="M 262.5,147.5 C 263.497,164.659 263.83,181.992 263.5,199.5C 266.833,199.5 270.167,199.5 273.5,199.5C 273.833,199.5 274.167,199.5 274.5,199.5C 270.702,200.483 266.702,200.817 262.5,200.5C 262.5,182.833 262.5,165.167 262.5,147.5 Z"/></g>
<g><path style="opacity:0.584" fill="#b4bddb" d="M 459.5,168.5 C 460.924,170.515 461.59,172.848 461.5,175.5C 460.076,173.485 459.41,171.152 459.5,168.5 Z"/></g>
<g><path style="opacity:0.584" fill="#cdd3e7" d="M 416.5,174.5 C 418.5,175.833 420.167,177.5 421.5,179.5C 418.833,178.833 417.167,177.167 416.5,174.5 Z"/></g>
<g><path style="opacity:0.306" fill="#dadfed" d="M 78.5,177.5 C 77.1667,177.5 75.8333,177.5 74.5,177.5C 74.5,180.833 74.5,184.167 74.5,187.5C 73.5184,184.038 73.185,180.371 73.5,176.5C 75.4147,176.216 77.0813,176.549 78.5,177.5 Z"/></g>
<g><path style="opacity:0.184" fill="#e3e7f2" d="M 558.5,180.5 C 558.5,180.167 558.5,179.833 558.5,179.5C 564.167,179.5 569.833,179.5 575.5,179.5C 575.5,188.5 575.5,197.5 575.5,206.5C 575.5,206.833 575.5,207.167 575.5,207.5C 574.507,198.682 574.173,189.682 574.5,180.5C 569.167,180.5 563.833,180.5 558.5,180.5 Z"/></g>
<g><path style="opacity:0.765" fill="#c0c7e1" d="M 823.5,184.5 C 824.833,185.167 825.833,186.167 826.5,187.5C 824.5,187.5 823.5,186.5 823.5,184.5 Z"/></g>
<g><path style="opacity:0.988" fill="#9ca8cf" d="M 968.5,187.5 C 967.508,189.026 966.008,189.693 964,189.5C 962.615,189.486 961.449,189.152 960.5,188.5C 963.237,188.599 965.904,188.265 968.5,187.5 Z"/></g>
<g><path style="opacity:0.827" fill="#a0acd1" d="M 428.5,202.5 C 431.132,203.751 433.799,204.751 436.5,205.5C 433.058,206.172 430.391,205.172 428.5,202.5 Z"/></g>
<g><path style="opacity:0.325" fill="#c8cfe5" d="M 943.5,203.5 C 945.027,203.427 946.027,204.094 946.5,205.5C 944.973,205.573 943.973,204.906 943.5,203.5 Z"/></g>
<g><path style="opacity:0.6" fill="#aeb8d8" d="M 558.5,179.5 C 558.5,179.833 558.5,180.167 558.5,180.5C 558.5,189.5 558.5,198.5 558.5,207.5C 549.833,207.5 541.167,207.5 532.5,207.5C 532.182,202.968 532.515,198.634 533.5,194.5C 533.5,198.5 533.5,202.5 533.5,206.5C 541.5,206.5 549.5,206.5 557.5,206.5C 557.173,197.318 557.507,188.318 558.5,179.5 Z"/></g>
<g><path style="opacity:0.6" fill="#a5b1d3" d="M 674.5,204.5 C 681.892,206.414 689.559,207.081 697.5,206.5C 697.5,206.833 697.5,207.167 697.5,207.5C 689.833,207.5 682.167,207.5 674.5,207.5C 674.5,206.5 674.5,205.5 674.5,204.5 Z"/></g>
<g><path style="opacity:0.389" fill="#ced4e7" d="M 206.5,174.5 C 206.5,204.833 206.5,235.167 206.5,265.5C 202.5,265.5 198.5,265.5 194.5,265.5C 195.158,237.48 194.492,209.813 192.5,182.5C 193.209,181.596 194.209,181.263 195.5,181.5C 195.5,209.167 195.5,236.833 195.5,264.5C 198.833,264.5 202.167,264.5 205.5,264.5C 205.169,234.329 205.502,204.329 206.5,174.5 Z"/></g>
<g><path style="opacity:0.433" fill="#b7c1dc" d="M 241.5,150.5 C 240.837,217.931 240.17,285.264 239.5,352.5C 238.837,284.825 239.503,217.492 241.5,150.5 Z"/></g>
<g><path style="opacity:0.788" fill="#8292c2" d="M 273.5,232.5 C 273.833,232.5 274.167,232.5 274.5,232.5C 273.837,298.175 274.503,363.509 276.5,428.5C 275.791,429.404 274.791,429.737 273.5,429.5C 273.5,363.833 273.5,298.167 273.5,232.5 Z"/></g>
<g><path style="opacity:1" fill="#6479b5" d="M 592.5,244.5 C 592.427,246.027 593.094,247.027 594.5,247.5C 594.427,249.027 595.094,250.027 596.5,250.5C 598.976,253.288 599.976,256.622 599.5,260.5C 599.5,267.833 599.5,275.167 599.5,282.5C 591.833,282.5 584.167,282.5 576.5,282.5C 576.666,276.491 576.499,270.491 576,264.5C 575.658,256.168 571.491,253.335 563.5,256C 561.951,257.214 560.785,258.714 560,260.5C 558.204,289.812 558.038,319.146 559.5,348.5C 559.427,350.027 560.094,351.027 561.5,351.5C 564.948,353.682 568.615,354.016 572.5,352.5C 574.5,352.5 575.5,351.5 575.5,349.5C 575.325,347.379 575.659,345.379 576.5,343.5C 577.489,338.025 577.822,332.358 577.5,326.5C 584.833,326.5 592.167,326.5 599.5,326.5C 599.5,333.833 599.5,341.167 599.5,348.5C 597.223,361.613 589.557,369.78 576.5,373C 569.833,373.667 563.167,373.667 556.5,373C 552.73,372.278 549.397,370.778 546.5,368.5C 545.738,366.738 544.404,365.738 542.5,365.5C 538.753,362.236 535.92,358.236 534,353.5C 533.333,321.5 533.333,289.5 534,257.5C 536.481,247.855 542.314,241.188 551.5,237.5C 554.152,237.59 556.485,236.924 558.5,235.5C 568.157,233.903 577.491,235.07 586.5,239C 588.996,240.331 590.996,242.164 592.5,244.5 Z"/></g>
<g><path style="opacity:1" fill="#667ab5" d="M 738.5,370.5 C 738.027,369.094 737.027,368.427 735.5,368.5C 735.027,367.094 734.027,366.427 732.5,366.5C 725.705,361.65 722.205,354.983 722,346.5C 721.333,317.833 721.333,289.167 722,260.5C 722.852,255.135 725.018,250.468 728.5,246.5C 730.5,245.167 732.167,243.5 733.5,241.5C 733.973,240.094 734.973,239.427 736.5,239.5C 738.967,239.245 740.967,238.245 742.5,236.5C 752.91,234.071 763.243,234.571 773.5,238C 783.434,244.033 788.6,252.866 789,264.5C 789.933,293.861 789.6,323.194 788,352.5C 782.25,367.551 771.25,374.551 755,373.5C 749.109,373.917 743.609,372.917 738.5,370.5 Z M 751.5,255.5 C 754.187,255.336 756.854,255.503 759.5,256C 760.428,256.388 761.095,257.055 761.5,258C 763.742,288.462 763.908,318.962 762,349.5C 758.595,353.781 754.595,354.448 750,351.5C 748.873,348.623 748.206,345.623 748,342.5C 747.333,316.833 747.333,291.167 748,265.5C 747.848,261.594 749.015,258.261 751.5,255.5 Z"/></g>
<g><path style="opacity:1" fill="#677bb6" d="M 988.5,243.5 C 988.427,245.027 989.094,246.027 990.5,246.5C 994.085,250.384 996.252,255.05 997,260.5C 997.962,291.54 997.628,322.54 996,353.5C 989.807,368.014 978.807,374.681 963,373.5C 946.153,374.242 935.153,366.575 930,350.5C 929.333,321.833 929.333,293.167 930,264.5C 929.879,257.013 932.379,250.679 937.5,245.5C 939.5,244.167 941.167,242.5 942.5,240.5C 942.973,239.094 943.973,238.427 945.5,238.5C 948.152,238.59 950.485,237.924 952.5,236.5C 963.513,233.246 974.18,234.412 984.5,240C 986.093,240.949 987.426,242.115 988.5,243.5 Z M 959.5,352.5 C 958.833,351.167 957.833,350.167 956.5,349.5C 956.333,319.498 956.5,289.498 957,259.5C 959.513,255.788 963.013,254.622 967.5,256C 969.774,258.344 970.941,261.178 971,264.5C 971.667,290.833 971.667,317.167 971,343.5C 971.255,351.941 967.422,354.941 959.5,352.5 Z"/></g>
<g><path style="opacity:0.965" fill="#a4afd3" d="M 558.5,235.5 C 556.485,236.924 554.152,237.59 551.5,237.5C 553.515,236.076 555.848,235.41 558.5,235.5 Z"/></g>
<g><path style="opacity:1" fill="#6076b3" d="M 686.5,236.5 C 694.833,236.5 703.167,236.5 711.5,236.5C 711.5,281.5 711.5,326.5 711.5,371.5C 703.167,371.5 694.833,371.5 686.5,371.5C 686.5,326.5 686.5,281.5 686.5,236.5 Z"/></g>
<g><path style="opacity:0.51" fill="#b2bcda" d="M 686.5,236.5 C 694.984,235.507 703.651,235.174 712.5,235.5C 712.5,281.167 712.5,326.833 712.5,372.5C 703.651,372.826 694.984,372.493 686.5,371.5C 694.833,371.5 703.167,371.5 711.5,371.5C 711.5,326.5 711.5,281.5 711.5,236.5C 703.167,236.5 694.833,236.5 686.5,236.5 Z"/></g>
<g><path style="opacity:0.569" fill="#a7b3d5" d="M 645.5,237.5 C 633.5,237.5 621.5,237.5 609.5,237.5C 609.5,282.167 609.5,326.833 609.5,371.5C 617.833,371.5 626.167,371.5 634.5,371.5C 626.016,372.493 617.349,372.826 608.5,372.5C 608.5,327.167 608.5,281.833 608.5,236.5C 621.011,236.171 633.345,236.505 645.5,237.5 Z"/></g>
<g><path style="opacity:1" fill="#6379b4" d="M 645.5,237.5 C 655.428,237.798 663.428,241.798 669.5,249.5C 669.427,251.027 670.094,252.027 671.5,252.5C 678.897,266.786 679.397,281.452 673,296.5C 670.709,300.955 667.542,304.622 663.5,307.5C 667.997,325.49 672.497,343.49 677,361.5C 680.815,371.97 677.148,375.636 666,372.5C 662.167,372.333 658.333,372.167 654.5,372C 654,371.5 653.5,371 653,370.5C 648.845,353.222 645.011,335.889 641.5,318.5C 641.5,317.167 641.5,315.833 641.5,314.5C 638.941,314.198 636.607,314.532 634.5,315.5C 634.5,334.167 634.5,352.833 634.5,371.5C 626.167,371.5 617.833,371.5 609.5,371.5C 609.5,326.833 609.5,282.167 609.5,237.5C 621.5,237.5 633.5,237.5 645.5,237.5 Z M 634.5,256.5 C 637.903,256.851 641.237,257.518 644.5,258.5C 644.973,259.906 645.973,260.573 647.5,260.5C 647.328,261.492 647.662,262.158 648.5,262.5C 648.932,263.71 649.599,264.71 650.5,265.5C 651.833,272.833 651.833,280.167 650.5,287.5C 649.094,287.973 648.427,288.973 648.5,290.5C 645.73,293.219 642.396,294.885 638.5,295.5C 637.167,295.5 635.833,295.5 634.5,295.5C 634.5,282.5 634.5,269.5 634.5,256.5 Z"/></g>
<g><path style="opacity:0.839" fill="#7c8dbf" d="M 823.5,236.5 C 823.5,236.833 823.5,237.167 823.5,237.5C 815.5,237.5 807.5,237.5 799.5,237.5C 799.5,282.167 799.5,326.833 799.5,371.5C 799.167,371.5 798.833,371.5 798.5,371.5C 798.5,326.5 798.5,281.5 798.5,236.5C 806.833,236.5 815.167,236.5 823.5,236.5 Z"/></g>
<g><path style="opacity:1" fill="#6076b3" d="M 823.5,237.5 C 823.5,276.167 823.5,314.833 823.5,353.5C 834.5,353.5 845.5,353.5 856.5,353.5C 856.5,359.5 856.5,365.5 856.5,371.5C 837.5,371.5 818.5,371.5 799.5,371.5C 799.5,326.833 799.5,282.167 799.5,237.5C 807.5,237.5 815.5,237.5 823.5,237.5 Z"/></g>
<g><path style="opacity:1" fill="#6076b3" d="M 910.5,353.5 C 915.167,353.5 919.833,353.5 924.5,353.5C 924.5,359.5 924.5,365.5 924.5,371.5C 905.5,371.5 886.5,371.5 867.5,371.5C 867.5,326.833 867.5,282.167 867.5,237.5C 875.167,237.5 882.833,237.5 890.5,237.5C 890.5,276.167 890.5,314.833 890.5,353.5C 897.167,353.5 903.833,353.5 910.5,353.5 Z"/></g>
<g><path style="opacity:0.78" fill="#8595c4" d="M 910.5,353.5 C 903.833,353.5 897.167,353.5 890.5,353.5C 890.5,314.833 890.5,276.167 890.5,237.5C 882.833,237.5 875.167,237.5 867.5,237.5C 867.5,282.167 867.5,326.833 867.5,371.5C 867.167,371.5 866.833,371.5 866.5,371.5C 866.5,326.5 866.5,281.5 866.5,236.5C 874.833,236.5 883.167,236.5 891.5,236.5C 891.5,275.167 891.5,313.833 891.5,352.5C 898.022,352.177 904.355,352.51 910.5,353.5 Z"/></g>
<g><path style="opacity:0.973" fill="#9aa6ce" d="M 952.5,236.5 C 950.485,237.924 948.152,238.59 945.5,238.5C 947.515,237.076 949.848,236.41 952.5,236.5 Z"/></g>
<g><path style="opacity:0.827" fill="#a4afd3" d="M 742.5,236.5 C 740.967,238.245 738.967,239.245 736.5,239.5C 738.033,237.755 740.033,236.755 742.5,236.5 Z"/></g>
<g><path style="opacity:0.698" fill="#b7c0dd" d="M 942.5,240.5 C 941.167,242.5 939.5,244.167 937.5,245.5C 938.167,242.833 939.833,241.167 942.5,240.5 Z"/></g>
<g><path style="opacity:0.702" fill="#b8c1dd" d="M 733.5,241.5 C 732.167,243.5 730.5,245.167 728.5,246.5C 729.167,243.833 730.833,242.167 733.5,241.5 Z"/></g>
<g><path style="opacity:0.694" fill="#c0c7e0" d="M 988.5,243.5 C 989.906,243.973 990.573,244.973 990.5,246.5C 989.094,246.027 988.427,245.027 988.5,243.5 Z"/></g>
<g><path style="opacity:0.471" fill="#c4cce2" d="M 592.5,244.5 C 593.906,244.973 594.573,245.973 594.5,247.5C 593.094,247.027 592.427,246.027 592.5,244.5 Z"/></g>
<g><path style="opacity:0.792" fill="#b3bcda" d="M 97.5,247.5 C 97.0269,248.906 96.0269,249.573 94.5,249.5C 94.9731,248.094 95.9731,247.427 97.5,247.5 Z"/></g>
<g><path style="opacity:0.51" fill="#b7c0dd" d="M 594.5,247.5 C 595.906,247.973 596.573,248.973 596.5,250.5C 595.094,250.027 594.427,249.027 594.5,247.5 Z"/></g>
<g><path style="opacity:0.028" fill="#f5f6fa" d="M 227.5,158.5 C 227.56,157.957 227.893,157.624 228.5,157.5C 229.5,222.497 229.833,287.497 229.5,352.5C 228.833,287.833 228.167,223.167 227.5,158.5 Z"/></g>
<g><path style="opacity:0.467" fill="#bec6e0" d="M 669.5,249.5 C 670.906,249.973 671.573,250.973 671.5,252.5C 670.094,252.027 669.427,251.027 669.5,249.5 Z"/></g>
<g><path style="opacity:0.694" fill="#b8c0dc" d="M 130.5,252.5 C 131.376,252.369 132.043,252.702 132.5,253.5C 131.717,255.288 130.384,256.288 128.5,256.5C 129.6,255.395 130.267,254.062 130.5,252.5 Z"/></g>
<g><path style="opacity:0.827" fill="#8092c1" d="M 634.5,256.5 C 634.5,269.5 634.5,282.5 634.5,295.5C 635.833,295.5 637.167,295.5 638.5,295.5C 637.081,296.451 635.415,296.784 633.5,296.5C 633.171,282.99 633.504,269.656 634.5,256.5 Z"/></g>
<g><path style="opacity:0.973" fill="#9aa7ce" d="M 128.5,256.5 C 127.415,258.587 125.749,259.92 123.5,260.5C 124.585,258.413 126.251,257.08 128.5,256.5 Z"/></g>
<g><path style="opacity:0.514" fill="#bec6e0" d="M 644.5,258.5 C 646.027,258.427 647.027,259.094 647.5,260.5C 645.973,260.573 644.973,259.906 644.5,258.5 Z"/></g>
<g><path style="opacity:0.929" fill="#b2bbd9" d="M 648.5,262.5 C 650.048,262.821 650.715,263.821 650.5,265.5C 649.599,264.71 648.932,263.71 648.5,262.5 Z"/></g>
<g><path style="opacity:0.5" fill="#a9b5d6" d="M 274.5,232.5 C 274.167,232.5 273.833,232.5 273.5,232.5C 270.167,232.5 266.833,232.5 263.5,232.5C 263.832,298.669 263.499,364.669 262.5,430.5C 262.5,364.167 262.5,297.833 262.5,231.5C 266.702,231.183 270.702,231.517 274.5,232.5 Z"/></g>
<g><path style="opacity:0.267" fill="#ced4e7" d="M 599.5,260.5 C 600.492,267.982 600.825,275.648 600.5,283.5C 592.316,283.826 584.316,283.492 576.5,282.5C 584.167,282.5 591.833,282.5 599.5,282.5C 599.5,275.167 599.5,267.833 599.5,260.5 Z"/></g>
<g><path style="opacity:0.898" fill="#b3bcda" d="M 445.5,283.5 C 445.88,285.698 445.213,287.365 443.5,288.5C 443.796,286.597 444.463,284.93 445.5,283.5 Z"/></g>
<g><path style="opacity:0.502" fill="#b9c1dd" d="M 650.5,287.5 C 650.573,289.027 649.906,290.027 648.5,290.5C 648.427,288.973 649.094,287.973 650.5,287.5 Z"/></g>
<g><path style="opacity:0.706" fill="#b0bad9" d="M 60.5,307.5 C 59.7377,309.262 58.4044,310.262 56.5,310.5C 57.2623,308.738 58.5956,307.738 60.5,307.5 Z"/></g>
<g><path style="opacity:0.2" fill="#d9deed" d="M 634.5,315.5 C 636.607,314.532 638.941,314.198 641.5,314.5C 641.5,315.833 641.5,317.167 641.5,318.5C 640.596,317.791 640.263,316.791 640.5,315.5C 638.5,315.5 636.5,315.5 634.5,315.5 Z"/></g>
<g><path style="opacity:0.667" fill="#a5b1d3" d="M 599.5,348.5 C 599.5,341.167 599.5,333.833 599.5,326.5C 592.167,326.5 584.833,326.5 577.5,326.5C 577.822,332.358 577.489,338.025 576.5,343.5C 576.5,337.5 576.5,331.5 576.5,325.5C 584.5,325.5 592.5,325.5 600.5,325.5C 600.825,333.352 600.492,341.018 599.5,348.5 Z"/></g>
<g><path style="opacity:0.471" fill="#bcc5de" d="M 425.5,327.5 C 425.573,329.027 424.906,330.027 423.5,330.5C 423.427,328.973 424.094,327.973 425.5,327.5 Z"/></g>
<g><path style="opacity:0.941" fill="#b2bbda" d="M 33.5,332.5 C 35.0481,332.821 35.7148,333.821 35.5,335.5C 34.5987,334.71 33.9321,333.71 33.5,332.5 Z"/></g>
<g><path style="opacity:0.533" fill="#b6bfdb" d="M 47.5,333.5 C 48.9063,333.973 49.573,334.973 49.5,336.5C 48.0937,336.027 47.427,335.027 47.5,333.5 Z"/></g>
<g><path style="opacity:0.565" fill="#b3bdda" d="M 49.5,336.5 C 50.9063,336.973 51.573,337.973 51.5,339.5C 50.0937,339.027 49.427,338.027 49.5,336.5 Z"/></g>
<g><path style="opacity:0.588" fill="#b2bcda" d="M 417.5,339.5 C 417.573,341.027 416.906,342.027 415.5,342.5C 415.427,340.973 416.094,339.973 417.5,339.5 Z"/></g>
<g><path style="opacity:0.773" fill="#b6bfdc" d="M 58.5,348.5 C 59.9063,348.973 60.573,349.973 60.5,351.5C 59.0937,351.027 58.427,350.027 58.5,348.5 Z"/></g>
<g><path style="opacity:0.753" fill="#bac2de" d="M 410.5,348.5 C 410.573,350.027 409.906,351.027 408.5,351.5C 408.427,349.973 409.094,348.973 410.5,348.5 Z"/></g>
<g><path style="opacity:0.541" fill="#b6c0dc" d="M 559.5,348.5 C 560.906,348.973 561.573,349.973 561.5,351.5C 560.094,351.027 559.427,350.027 559.5,348.5 Z"/></g>
<g><path style="opacity:0.78" fill="#c0c7e1" d="M 956.5,349.5 C 957.833,350.167 958.833,351.167 959.5,352.5C 957.5,352.5 956.5,351.5 956.5,349.5 Z"/></g>
<g><path style="opacity:0.741" fill="#afb9d9" d="M 575.5,349.5 C 575.5,351.5 574.5,352.5 572.5,352.5C 573.167,351.167 574.167,350.167 575.5,349.5 Z"/></g>
<g><path style="opacity:0.776" fill="#c2c9e2" d="M 64.5,355.5 C 66.914,356.911 68.5806,358.911 69.5,361.5C 67.086,360.089 65.4194,358.089 64.5,355.5 Z"/></g>
<g><path style="opacity:0.698" fill="#bec6e0" d="M 404.5,355.5 C 404.573,357.027 403.906,358.027 402.5,358.5C 402.427,356.973 403.094,355.973 404.5,355.5 Z"/></g>
<g><path style="opacity:0.882" fill="#b2bad9" d="M 542.5,365.5 C 544.404,365.738 545.738,366.738 546.5,368.5C 544.596,368.262 543.262,367.262 542.5,365.5 Z"/></g>
<g><path style="opacity:0.612" fill="#aeb8d8" d="M 732.5,366.5 C 734.027,366.427 735.027,367.094 735.5,368.5C 733.973,368.573 732.973,367.906 732.5,366.5 Z"/></g>
<g><path style="opacity:0.357" fill="#c4cbe2" d="M 735.5,368.5 C 737.027,368.427 738.027,369.094 738.5,370.5C 736.973,370.573 735.973,369.906 735.5,368.5 Z"/></g>
<g><path style="opacity:0.333" fill="#c0c8e1" d="M 823.5,236.5 C 824.499,274.996 824.832,313.663 824.5,352.5C 835.5,352.5 846.5,352.5 857.5,352.5C 857.5,359.167 857.5,365.833 857.5,372.5C 837.66,372.83 817.993,372.497 798.5,371.5C 798.833,371.5 799.167,371.5 799.5,371.5C 818.5,371.5 837.5,371.5 856.5,371.5C 856.5,365.5 856.5,359.5 856.5,353.5C 845.5,353.5 834.5,353.5 823.5,353.5C 823.5,314.833 823.5,276.167 823.5,237.5C 823.5,237.167 823.5,236.833 823.5,236.5 Z"/></g>
<g><path style="opacity:0.333" fill="#cdd4e7" d="M 924.5,353.5 C 925.49,359.645 925.823,365.978 925.5,372.5C 905.66,372.83 885.993,372.497 866.5,371.5C 866.833,371.5 867.167,371.5 867.5,371.5C 886.5,371.5 905.5,371.5 924.5,371.5C 924.5,365.5 924.5,359.5 924.5,353.5 Z"/></g>
<g><path style="opacity:0.584" fill="#cad0e5" d="M 64.5,372.5 C 66.4044,372.738 67.7377,373.738 68.5,375.5C 66.5956,375.262 65.2623,374.262 64.5,372.5 Z"/></g>
<g><path style="opacity:0.592" fill="#cdd3e7" d="M 80.5,371.5 C 81.8333,372.167 82.8333,373.167 83.5,374.5C 81.5,374.5 80.5,373.5 80.5,371.5 Z"/></g>
<g><path style="opacity:0.914" fill="#9ca8cf" d="M 385.5,375.5 C 384.089,377.914 382.089,379.581 379.5,380.5C 380.911,378.086 382.911,376.419 385.5,375.5 Z"/></g>
<g><path style="opacity:0.804" fill="#b9c2dd" d="M 76.5,383.5 C 78.4044,383.738 79.7377,384.738 80.5,386.5C 78.5956,386.262 77.2623,385.262 76.5,383.5 Z"/></g>
<g><path style="opacity:0.937" fill="#a1add2" d="M 379.5,380.5 C 378.415,382.587 376.749,383.92 374.5,384.5C 375.585,382.413 377.251,381.08 379.5,380.5 Z"/></g>
<g><path style="opacity:0.431" fill="#c3cbe2" d="M 229.5,384.5 C 232.962,383.518 236.629,383.185 240.5,383.5C 240.5,399.833 240.5,416.167 240.5,432.5C 239.504,416.675 239.17,400.675 239.5,384.5C 236.167,384.5 232.833,384.5 229.5,384.5 Z"/></g>
<g><path style="opacity:0.706" fill="#b0bad9" d="M 370.5,387.5 C 369.738,389.262 368.404,390.262 366.5,390.5C 367.262,388.738 368.596,387.738 370.5,387.5 Z"/></g>
<g><path style="opacity:0.702" fill="#bec6e0" d="M 83.5,389.5 C 85.0269,389.427 86.0269,390.094 86.5,391.5C 84.9731,391.573 83.9731,390.906 83.5,389.5 Z"/></g>
<g><path style="opacity:0.784" fill="#b1bbd9" d="M 360.5,394.5 C 360.027,395.906 359.027,396.573 357.5,396.5C 357.973,395.094 358.973,394.427 360.5,394.5 Z"/></g>
<g><path style="opacity:0.533" fill="#b6bfdb" d="M 98.5,400.5 C 100.027,400.427 101.027,401.094 101.5,402.5C 99.9731,402.573 98.9731,401.906 98.5,400.5 Z"/></g>
<g><path style="opacity:0.573" fill="#b3bdda" d="M 101.5,402.5 C 103.027,402.427 104.027,403.094 104.5,404.5C 102.973,404.573 101.973,403.906 101.5,402.5 Z"/></g>
<g><path style="opacity:0.937" fill="#b2bad9" d="M 122.5,402.5 C 123.71,402.932 124.71,403.599 125.5,404.5C 123.821,404.715 122.821,404.048 122.5,402.5 Z"/></g>
<g><path style="opacity:0.435" fill="#bec5e0" d="M 104.5,404.5 C 106.027,404.427 107.027,405.094 107.5,406.5C 105.973,406.573 104.973,405.906 104.5,404.5 Z"/></g>
<g><path style="opacity:0.804" fill="#b0bad9" d="M 343.5,404.5 C 343.027,405.906 342.027,406.573 340.5,406.5C 340.973,405.094 341.973,404.427 343.5,404.5 Z"/></g>
<g><path style="opacity:0.969" fill="#9aa6ce" d="M 320.5,415.5 C 318.383,417.655 315.716,418.655 312.5,418.5C 314.936,417.129 317.603,416.129 320.5,415.5 Z"/></g>
<g><path style="opacity:0.918" fill="#9da9cf" d="M 304.5,421.5 C 302.485,422.924 300.152,423.59 297.5,423.5C 299.515,422.076 301.848,421.41 304.5,421.5 Z"/></g>
<g><path style="opacity:0.941" fill="#9ba7cf" d="M 297.5,423.5 C 295.485,424.924 293.152,425.59 290.5,425.5C 292.515,424.076 294.848,423.41 297.5,423.5 Z"/></g>
<g><path style="opacity:0.922" fill="#a8b3d5" d="M 161.5,431.5 C 164.152,431.41 166.485,432.076 168.5,433.5C 165.848,433.59 163.515,432.924 161.5,431.5 Z"/></g>
<g><path style="opacity:0.682" fill="#adb7d7" d="M 172.5,434.5 C 175.152,434.41 177.485,435.076 179.5,436.5C 176.848,436.59 174.515,435.924 172.5,434.5 Z"/></g>
</svg>
